<svg xmlns="http://www.w3.org/2000/svg" viewBox="0 0 32 32">
  <!-- Dark background -->
  <circle cx="16" cy="16" r="16" fill="#0f172a"/>
  <!-- Wheel segments (8 x 45°, chromakey-safe palette) -->
  <path d="M16,16 L16,2 A14,14 0 0,1 25.9,6.1 Z" fill="#ef4444"/>
  <path d="M16,16 L25.9,6.1 A14,14 0 0,1 30,16 Z" fill="#f97316"/>
  <path d="M16,16 L30,16 A14,14 0 0,1 25.9,25.9 Z" fill="#f59e0b"/>
  <path d="M16,16 L25.9,25.9 A14,14 0 0,1 16,30 Z" fill="#f472b6"/>
  <path d="M16,16 L16,30 A14,14 0 0,1 6.1,25.9 Z" fill="#d946ef"/>
  <path d="M16,16 L6.1,25.9 A14,14 0 0,1 2,16 Z" fill="#a855f7"/>
  <path d="M16,16 L2,16 A14,14 0 0,1 6.1,6.1 Z" fill="#6366f1"/>
  <path d="M16,16 L6.1,6.1 A14,14 0 0,1 16,2 Z" fill="#3b82f6"/>
  <!-- Divider lines -->
  <line x1="16" y1="16" x2="16" y2="2" stroke="#0f172a" stroke-width="1.2"/>
  <line x1="16" y1="16" x2="25.9" y2="6.1" stroke="#0f172a" stroke-width="1.2"/>
  <line x1="16" y1="16" x2="30" y2="16" stroke="#0f172a" stroke-width="1.2"/>
  <line x1="16" y1="16" x2="25.9" y2="25.9" stroke="#0f172a" stroke-width="1.2"/>
  <line x1="16" y1="16" x2="16" y2="30" stroke="#0f172a" stroke-width="1.2"/>
  <line x1="16" y1="16" x2="6.1" y2="25.9" stroke="#0f172a" stroke-width="1.2"/>
  <line x1="16" y1="16" x2="2" y2="16" stroke="#0f172a" stroke-width="1.2"/>
  <line x1="16" y1="16" x2="6.1" y2="6.1" stroke="#0f172a" stroke-width="1.2"/>
  <!-- Outer ring -->
  <circle cx="16" cy="16" r="14" fill="none" stroke="#0f172a" stroke-width="1.5"/>
  <!-- Center hub -->
  <circle cx="16" cy="16" r="3.5" fill="#1e293b" stroke="#e2e8f0" stroke-width="1"/>
  <!-- Pointer triangle at top -->
  <polygon points="13.5,1 18.5,1 16,6" fill="#ffffff"/>
</svg>
